<?xml version="1.0" encoding="iso-8859-1"?>
<!-- Generator: Adobe Illustrator 21.0.2, SVG Export Plug-In . SVG Version: 6.00 Build 0)  -->
<svg xmlns="http://www.w3.org/2000/svg" xmlns:xlink="http://www.w3.org/1999/xlink" version="1.1" id="Layer_1" x="0px" y="0px" viewBox="0 0 48 48" style="enable-background:new 0 0 48 48;" xml:space="preserve" width="48px" height="48px">
<path style="fill:#FF3D00;" d="M42,24c0,9.941-8.059,18-18,18S6,33.941,6,24S14.059,6,24,6S42,14.059,42,24z"/>
<path style="fill:#DD2C00;" d="M13.398,39.801l3.402-5.102L15.301,35l-4.602,0.801L13.301,32l5.398-8.199L17.301,24l-5.902,1  l4.102-4.301L29.602,5.801c0.699,0.199,1.398,0.5,2,0.801L17,22l6-1l-8,12l6-1l-5.801,8.801C14.602,40.5,14,40.199,13.398,39.801z   M39,12.398l-5.699,1.703l-2.102,0.598L34.801,8.5c-0.5-0.398-1.102-0.699-1.699-1.102L27,18l6.898-2L25,28l6-1L16.5,41.5  c0.699,0.301,1.398,0.5,2.102,0.699l13.797-13.801L36.801,24l-6.102,1l-1.098,0.199l6-8L39,12.398z"/>
<path style="fill:#FFC107;" d="M24,7c9.351,0,17,7.649,17,17s-7.649,17-17,17S7,33.351,7,24S14.649,7,24,7 M24,4  C12.947,4,4,12.947,4,24s8.947,20,20,20s20-8.947,20-20S35.053,4,24,4z M37,1L17,22l6-1l-8,12l6-1L11,47l20-20l-6,1l8.898-12L27,18  L37,1z"/>
<g>
	<path style="fill:#D69D0D;" d="M30.168,8.172L30.17,8.17l2.205-2.314c-0.65-0.3-1.315-0.57-2-0.8L28.722,6.79l-0.68,0.714   C28.771,7.682,29.48,7.903,30.168,8.172z"/>
	<path style="fill:#D69D0D;" d="M14.58,41.64l1.678-2.518c-0.597-0.306-1.179-0.635-1.732-1.007l-1.61,2.415l-0.054,0.081   C13.415,40.983,13.989,41.325,14.58,41.64L14.58,41.64z"/>
	<path style="fill:#D69D0D;" d="M20.256,40.573c-0.746-0.168-1.47-0.391-2.175-0.653l-2.3,2.3c0.661,0.299,1.337,0.568,2.034,0.795   L20.256,40.573z"/>
	<path style="fill:#D69D0D;" d="M33.74,6.54l-1.517,2.585c0.586,0.325,1.144,0.691,1.685,1.08l0.036-0.06l1.491-2.54   C34.888,7.223,34.324,6.866,33.74,6.54L33.74,6.54z"/>
</g>
</svg>
